<svg width="57" height="57" viewBox="0 0 57 57" fill="none" xmlns="http://www.w3.org/2000/svg">
<path d="M5.34365 8.43147L4.57178 12.0533L6.47178 13.7752C8.49053 15.5565 9.4999 15.4971 9.4999 13.6565C9.4999 13.0627 9.7374 12.4096 10.0343 12.2315C11.2218 11.519 12.4093 13.6565 13.2999 18.0502C13.8343 20.6627 14.5468 23.0971 14.9624 23.5721C15.3187 24.0471 17.0405 25.2346 18.8218 26.3033C22.3249 28.3815 22.3843 28.5002 21.078 34.4377C19.7124 40.7315 19.3562 40.3752 25.7687 40.3752H31.2905L32.003 36.8127C32.4187 34.8533 32.7749 33.2502 32.8937 33.2502C33.0124 33.2502 34.3187 34.8533 35.8624 36.8127L38.653 40.3752H42.2155C44.1155 40.3752 45.7186 40.1971 45.6593 39.9002C45.6593 39.6627 43.0468 36.1596 39.8405 32.0627L34.0812 24.6408L29.8655 23.9283C25.2937 23.1565 19.7718 20.7221 19.178 19.1783C18.9405 18.644 18.5249 16.744 18.1687 14.9627C17.5155 11.8158 17.4562 11.7565 14.2499 10.3908C11.2218 9.14397 10.9843 8.84709 11.1624 7.24397C11.3405 5.70022 11.1624 5.46272 9.44053 5.10647C6.29365 4.51272 6.11553 4.63147 5.34365 8.43147Z" fill="#B3B3B3"/>
<path d="M27.3125 13.0625C26.5406 13.8344 26.125 15.0219 26.125 16.625C26.125 18.2281 26.5406 19.4156 27.3125 20.1875C28.0844 20.9594 29.2719 21.375 30.875 21.375C32.4781 21.375 33.6656 20.9594 34.4375 20.1875C35.2094 19.4156 35.625 18.2281 35.625 16.625C35.625 15.0219 35.2094 13.8344 34.4375 13.0625C33.6656 12.2906 32.4781 11.875 30.875 11.875C29.2719 11.875 28.0844 12.2906 27.3125 13.0625Z" fill="#B3B3B3"/>
<path d="M9.5 47.5V49.875H30.875H52.25V47.5V45.125H30.875H9.5V47.5Z" fill="#B3B3B3"/>
</svg>
