<svg width="120" height="120" viewBox="0 0 120 120" fill="none" xmlns="http://www.w3.org/2000/svg">
<path d="M10.431 10.431C10 10.8621 10 11.1422 10 60C10 108.858 10 109.138 10.431 109.569C10.8621 110 11.1422 110 60 110C108.858 110 109.138 110 109.569 109.569C110 109.138 110 108.858 110 60C110 11.1422 110 10.8621 109.569 10.431C109.138 10 108.858 10 60 10C11.1422 10 10.8621 10 10.431 10.431ZM55.6897 33.2112V52.9957L44.806 42.1121L33.9224 31.2284V22.3491V13.4483H44.806H55.6897V33.2112ZM106.552 58.6422V103.858L95.6681 92.9741L84.7845 82.0905V47.7802V13.4483H95.6681H106.552V58.6422ZM42.1121 44.806L52.9957 55.6897H33.2112H13.4483V44.806V33.9224H22.3491H31.2284L42.1121 44.806ZM92.9741 95.6681L103.858 106.552H58.6422H13.4483V95.6681V84.7845H47.7802H82.0905L92.9741 95.6681Z" fill="url(#paint0_linear_2028_306)"/>
<defs>
<linearGradient id="paint0_linear_2028_306" x1="61.5011" y1="103.988" x2="61.5013" y2="15.0587" gradientUnits="userSpaceOnUse">
<stop stop-color="#0097F3"/>
<stop offset="1" stop-color="#0160EA"/>
</linearGradient>
</defs>
</svg>
