<svg width="54" height="54" viewBox="0 0 54 54" fill="none" xmlns="http://www.w3.org/2000/svg">
<path d="M20.8687 8.8875L15.5249 13.2188L17.8874 13.3875L20.2499 13.5563V18.0563V22.5H22.4999H24.7499V20.25V18H26.9999H29.2499V20.25V22.5H31.4999H33.7499V18.0563V13.5563L36.1124 13.3875L38.4749 13.2188L33.0187 8.83125C30.0374 6.46875 27.2812 4.5 26.8874 4.55625C26.4937 4.55625 23.7937 6.525 20.8687 8.8875Z" fill="white"/>
<path d="M4.89375 13.8375C4.66875 14.0625 4.5 18.3938 4.5 23.5125V32.7375L9 37.35C13.3312 41.7938 13.5 42.075 13.5 44.6063V47.25H19.125H24.75V41.7375C24.75 36.5063 24.6375 36.0563 23.1187 33.975C22.2187 32.7938 19.4625 29.7563 16.9312 27.2813C11.925 22.3875 11.25 22.3313 11.25 26.6063C11.25 28.35 11.7 29.1938 13.7812 31.4438C16.1437 33.975 16.9312 35.4375 15.8625 35.4375C15.6375 35.4375 14.0062 33.975 12.2062 32.175L9.05625 28.9688L8.8875 21.375L8.71875 13.7813L7.03125 13.6125C6.075 13.5 5.11875 13.6125 4.89375 13.8375Z" fill="white"/>
<path d="M45.3937 13.8375C45.1687 14.0625 45 17.55 45 21.6V28.9125L41.7937 32.175C39.9937 33.975 38.3625 35.4375 38.1375 35.4375C37.0687 35.4375 37.8562 33.975 40.2187 31.4438C42.3 29.1938 42.75 28.35 42.75 26.6063C42.75 22.3313 42.075 22.3875 37.0687 27.2813C34.5375 29.7563 31.7812 32.7938 30.8812 33.975C29.3625 36.0563 29.25 36.5063 29.25 41.7375V47.25H34.875H40.5V44.6063C40.5 42.075 40.6687 41.7938 45 37.35L49.5 32.7375L49.3875 23.2313L49.2187 13.7813L47.5312 13.6125C46.575 13.5 45.6187 13.6125 45.3937 13.8375Z" fill="white"/>
</svg>
