<svg width="120" height="120" viewBox="0 0 120 120" fill="none" xmlns="http://www.w3.org/2000/svg">
<path d="M10 59.9765C10.0391 59.8788 25.9389 48.5862 45.3157 34.8905C64.712 21.2144 80.6509 10 80.7486 10C80.8267 10 80.8658 10.1563 80.8267 10.3321C80.7842 10.4737 79.4192 15.9373 77.4893 23.6622L77.4852 23.6788C76.7523 26.6124 75.9381 29.8714 75.084 33.2885L69.4389 55.9127H54.965L54.2813 54.4865C53.2851 52.3569 50.8631 49.9734 48.6363 48.9183C46.6439 47.9805 45.3743 47.6875 43.1671 47.6875C39.8074 47.707 37.0923 48.8597 34.6702 51.3019C32.0528 53.9199 30.9785 56.4793 30.9785 60.0155C30.9785 63.5713 32.0528 66.1307 34.6702 68.7292C37.1314 71.1909 39.8269 72.324 43.1671 72.3436C45.3743 72.3436 46.6439 72.0505 48.6363 71.1127C50.8435 70.0577 53.0898 67.85 54.2227 65.6423L54.9845 64.1184H69.4389L75.1621 86.9966C78.3069 99.5981 80.8462 109.933 80.7876 109.972C80.7486 110.031 80.5728 109.992 80.4165 109.894C78.9125 108.996 9.96095 60.1132 10 59.9765Z" fill="url(#paint0_linear_2028_289)"/>
<path d="M86.725 33.2494C83.6387 30.1429 84.7326 24.4576 88.7173 22.9141C91.1199 21.9959 93.9717 22.5429 95.7102 24.2622C97.4291 26.001 97.976 28.7753 97.0579 31.198C95.5539 35.2422 89.8502 36.3558 86.725 33.2494Z" fill="url(#paint1_linear_2028_289)"/>
<path d="M101.218 54.1738C97.2337 55.7173 96.1399 61.4026 99.2261 64.5091C102.351 67.6155 108.055 66.5019 109.559 62.4577C110.477 60.035 109.93 57.2607 108.211 55.5219C106.473 53.8026 103.621 53.2556 101.218 54.1738Z" fill="url(#paint2_linear_2028_289)"/>
<path d="M86.725 95.7688C83.6387 92.6624 84.7326 86.977 88.7173 85.4335C90.1432 84.8865 92.2137 84.8865 93.6592 85.4335C97.7025 86.9379 98.8159 92.6428 95.7102 95.7688C93.2881 98.1719 89.1471 98.1719 86.725 95.7688Z" fill="url(#paint3_linear_2028_289)"/>
<defs>
<linearGradient id="paint0_linear_2028_289" x1="61.5011" y1="16.0117" x2="61.5013" y2="104.941" gradientUnits="userSpaceOnUse">
<stop stop-color="#0097F3"/>
<stop offset="1" stop-color="#0160EA"/>
</linearGradient>
<linearGradient id="paint1_linear_2028_289" x1="61.5011" y1="16.0117" x2="61.5013" y2="104.941" gradientUnits="userSpaceOnUse">
<stop stop-color="#0097F3"/>
<stop offset="1" stop-color="#0160EA"/>
</linearGradient>
<linearGradient id="paint2_linear_2028_289" x1="61.5011" y1="16.0117" x2="61.5013" y2="104.941" gradientUnits="userSpaceOnUse">
<stop stop-color="#0097F3"/>
<stop offset="1" stop-color="#0160EA"/>
</linearGradient>
<linearGradient id="paint3_linear_2028_289" x1="61.5011" y1="16.0117" x2="61.5013" y2="104.941" gradientUnits="userSpaceOnUse">
<stop stop-color="#0097F3"/>
<stop offset="1" stop-color="#0160EA"/>
</linearGradient>
</defs>
</svg>
