<svg width="120" height="120" viewBox="0 0 120 120" fill="none" xmlns="http://www.w3.org/2000/svg">
<path d="M56.8953 13.9527C57.1101 11.7067 57.3835 11.0232 58.3599 10.3787C59.102 9.89048 60.801 9.87095 61.6016 10.3397C62.578 10.9256 62.8905 11.6872 63.1053 13.9527C63.4177 17.1751 64.5308 19.9483 66.4055 22.1552C69.0809 25.2995 72.3226 26.979 76.5602 27.4087C78.845 27.643 79.5284 27.9164 80.1338 28.8734C80.622 29.6741 80.6415 31.3146 80.1729 32.1153C79.587 33.0723 78.845 33.3848 76.5992 33.6191C74.1192 33.873 72.8694 34.2246 70.9165 35.2206C67.5382 36.9783 64.98 40.0054 63.7302 43.7551C63.4958 44.4386 63.2225 45.9229 63.1053 47.0751C62.8319 50.0827 62.0898 51.0201 60.0003 51.0201C57.9108 51.0201 57.1687 50.0827 56.8953 47.0947C56.661 44.6339 56.29 43.384 55.294 41.431C53.9271 38.7945 51.7204 36.5877 49.0841 35.2206C47.1508 34.2246 45.8815 33.873 43.4014 33.6191C41.1557 33.3848 40.4526 33.0918 39.8668 32.1544C39.3786 31.3537 39.3591 29.7132 39.8473 28.9125C40.4136 27.9555 41.1557 27.643 43.4405 27.4087C47.7757 26.979 51.1345 25.1823 53.7513 21.9403C55.626 19.6163 56.5829 17.1555 56.8953 13.9527Z" fill="url(#paint0_linear_2028_20)"/>
<path d="M27.4072 43.4426C27.622 41.1967 27.8954 40.5131 28.8718 39.8687C29.6139 39.3804 31.3129 39.3609 32.1135 39.8296C33.0899 40.4155 33.4024 41.1771 33.6172 43.4426C33.9296 46.665 35.0427 49.4382 36.9174 51.6451C39.5928 54.7894 42.8345 56.4689 47.0721 56.8986C49.3569 57.133 50.0403 57.4064 50.6457 58.3633C51.1339 59.1641 51.1534 60.8046 50.6848 61.6053C50.0989 62.5622 49.3569 62.8747 47.1111 63.1091C44.631 63.3629 43.3812 63.7145 41.4284 64.7105C38.0501 66.4682 35.4919 69.4953 34.2421 73.245C34.0077 73.9285 33.7343 75.4128 33.6172 76.5651C33.3438 79.5726 32.6017 80.5101 30.5122 80.5101C28.4227 80.5101 27.6806 79.5726 27.4072 76.5846C27.1729 74.1238 26.8019 72.8739 25.8059 70.921C24.439 68.2844 22.2323 66.0776 19.596 64.7105C17.6627 63.7145 16.3934 63.3629 13.9133 63.1091C11.6676 62.8747 10.9645 62.5818 10.3787 61.6443C9.89049 60.8436 9.87096 59.2031 10.3396 58.4024C10.9255 57.4454 11.6676 57.133 13.9523 56.8986C18.2876 56.4689 21.6464 54.6722 24.2632 51.4303C26.1379 49.1062 27.0948 46.6455 27.4072 43.4426Z" fill="url(#paint1_linear_2028_20)"/>
<path d="M87.8474 39.8687C86.871 40.5131 86.5976 41.1967 86.3828 43.4426C86.0704 46.6455 85.1135 49.1062 83.2388 51.4303C80.622 54.6722 77.2632 56.4689 72.9279 56.8986C70.6431 57.133 69.9011 57.4454 69.3348 58.4024C68.8466 59.2031 68.8661 60.8436 69.3543 61.6443C69.9401 62.5818 70.6431 62.8747 72.8889 63.1091C75.3689 63.3629 76.6383 63.7145 78.5716 64.7105C81.2079 66.0776 83.4145 68.2844 84.7815 70.921C85.7775 72.8739 86.1485 74.1238 86.3828 76.5846C86.6562 79.5726 87.3983 80.5101 89.4878 80.5101C91.5773 80.5101 92.3194 79.5726 92.5928 76.5651C92.7099 75.4128 92.9833 73.9285 93.2177 73.245C94.4675 69.4953 97.0257 66.4682 100.404 64.7105C102.357 63.7145 103.607 63.3629 106.087 63.1091C108.332 62.8747 109.075 62.5622 109.66 61.6053C110.129 60.8046 110.11 59.1641 109.621 58.3633C109.016 57.4064 108.332 57.133 106.048 56.8986C101.81 56.4689 98.5684 54.7894 95.893 51.6451C94.0183 49.4382 92.9052 46.665 92.5928 43.4426C92.378 41.1771 92.0655 40.4155 91.0891 39.8296C90.2885 39.3609 88.5895 39.3804 87.8474 39.8687Z" fill="url(#paint2_linear_2028_20)"/>
<path d="M56.8953 72.9325C57.1101 70.6866 57.3835 70.0031 58.3599 69.3586C59.102 68.8703 60.801 68.8508 61.6016 69.3195C62.578 69.9054 62.8905 70.6671 63.1053 72.9325C63.4177 76.1549 64.5308 78.9282 66.4055 81.135C69.0809 84.2793 72.3226 85.9589 76.5602 86.3885C78.845 86.6229 79.5284 86.8963 80.1338 87.8533C80.622 88.654 80.6415 90.2945 80.1729 91.0952C79.587 92.0522 78.845 92.3646 76.5992 92.599C74.1192 92.8529 72.8694 93.2044 70.9165 94.2004C67.5382 95.9581 64.98 98.9852 63.7302 102.735C63.4958 103.418 63.2225 104.903 63.1053 106.055C62.8319 109.063 62.0898 110 60.0003 110C57.9108 110 57.1687 109.063 56.8953 106.075C56.661 103.614 56.29 102.364 55.294 100.411C53.9271 97.7744 51.7204 95.5675 49.0841 94.2004C47.1508 93.2044 45.8815 92.8529 43.4014 92.599C41.1557 92.3646 40.4526 92.0717 39.8668 91.1343C39.3786 90.3335 39.3591 88.693 39.8473 87.8923C40.4136 86.9354 41.1557 86.6229 43.4405 86.3885C47.7757 85.9589 51.1345 84.1621 53.7513 80.9202C55.626 78.5962 56.5829 76.1354 56.8953 72.9325Z" fill="url(#paint3_linear_2028_20)"/>
<defs>
<linearGradient id="paint0_linear_2028_20" x1="61.5011" y1="16.0117" x2="61.5013" y2="104.941" gradientUnits="userSpaceOnUse">
<stop stop-color="#0097F3"/>
<stop offset="1" stop-color="#0160EA"/>
</linearGradient>
<linearGradient id="paint1_linear_2028_20" x1="61.5011" y1="16.0117" x2="61.5013" y2="104.941" gradientUnits="userSpaceOnUse">
<stop stop-color="#0097F3"/>
<stop offset="1" stop-color="#0160EA"/>
</linearGradient>
<linearGradient id="paint2_linear_2028_20" x1="61.5011" y1="16.0117" x2="61.5013" y2="104.941" gradientUnits="userSpaceOnUse">
<stop stop-color="#0097F3"/>
<stop offset="1" stop-color="#0160EA"/>
</linearGradient>
<linearGradient id="paint3_linear_2028_20" x1="61.5011" y1="16.0117" x2="61.5013" y2="104.941" gradientUnits="userSpaceOnUse">
<stop stop-color="#0097F3"/>
<stop offset="1" stop-color="#0160EA"/>
</linearGradient>
</defs>
</svg>
