<svg width="120" height="120" viewBox="0 0 120 120" fill="none" xmlns="http://www.w3.org/2000/svg">
<path d="M51.9309 56.2647C53.0445 53.9983 54.7442 52.4549 57.0886 51.5757C57.9483 51.2631 58.5344 51.2045 60.2927 51.2631C62.2659 51.3022 62.5394 51.3608 63.8093 51.986C65.6067 52.8456 67.1501 54.3891 68.0293 56.1865C68.674 57.5151 68.6935 57.6128 68.6935 59.9963C68.6935 62.3799 68.674 62.4776 68.0293 63.8062C67.1501 65.6036 65.6067 67.1471 63.8093 68.0262C62.4808 68.671 62.3831 68.6905 59.9996 68.6905C57.6161 68.6905 57.5184 68.671 56.1899 68.0262C54.3926 67.1471 52.8491 65.6036 51.97 63.8062C51.3253 62.4776 51.3057 62.3799 51.3057 59.9963C51.3057 57.6518 51.3253 57.5151 51.9309 56.2647Z" fill="url(#paint0_linear_2028_268)"/>
<path fill-rule="evenodd" clip-rule="evenodd" d="M55.3303 33.9333C44.6241 35.7308 35.6763 44.7571 33.918 55.5027C33.5468 57.8863 33.5468 62.1064 33.918 64.49C35.6763 75.3333 44.6632 84.3205 55.5062 86.0789C57.8896 86.4501 62.1096 86.4501 64.4931 86.0789C75.336 84.3205 84.323 75.3333 86.0813 64.49C86.4525 62.1064 86.4525 57.8863 86.0813 55.5027C84.323 44.6594 75.336 35.6722 64.4931 33.9138C62.2073 33.5426 57.5771 33.5621 55.3303 33.9333ZM63.2818 45.8512C65.0597 46.2224 67.7557 47.5705 69.1819 48.7818C72.679 51.7515 74.4569 55.5418 74.4569 59.9768C74.4569 62.4581 74.1052 64.0211 73.1088 66.1311C71.7022 69.1399 69.3382 71.543 66.3491 72.9888C64.1414 74.0633 62.4027 74.4736 59.9996 74.4736C57.5966 74.4736 55.8578 74.0633 53.6502 72.9888C50.661 71.543 48.4534 69.3157 47.0076 66.346C45.894 64.0797 45.5424 62.5558 45.5424 59.9963C45.5424 57.4369 45.894 55.8935 47.0076 53.6467C48.3947 50.8137 50.5633 48.5669 53.3376 47.1211C56.5025 45.48 59.5893 45.0892 63.2818 45.8512Z" fill="url(#paint1_linear_2028_268)"/>
<path fill-rule="evenodd" clip-rule="evenodd" d="M55.3106 10.1171C50.0356 10.6837 43.8229 12.4811 38.7824 14.9038L36.7506 15.8611L35.5198 14.9819C32.6869 12.9696 30.3425 12.2272 26.6891 12.2272C24.5791 12.2272 23.8954 12.3053 22.6841 12.6961C17.7413 14.22 14.2246 17.7367 12.7008 22.6797C12.31 23.891 12.2319 24.5749 12.2319 26.6849C12.2319 30.3384 12.9743 32.6829 14.9866 35.5158L15.8853 36.7662L14.9084 38.7591C12.9938 42.7056 11.3527 47.7854 10.5712 52.1813C9.9656 55.5808 9.80931 62.5557 10.2587 66.0529C11.0792 72.2659 12.6031 77.1893 15.3773 82.6793C17.7413 87.3293 20.8085 91.5494 24.6378 95.3592C32.8432 103.565 43.4126 108.625 54.8808 109.836C58.1239 110.169 64.7664 109.973 67.7165 109.446C72.5421 108.586 77.0941 107.101 81.6267 104.893L83.2482 104.112L84.3423 104.933C89.6563 108.938 97.2757 108.801 102.512 104.581C104.739 102.764 106.653 99.8137 107.415 96.9222C107.884 95.1638 107.884 91.2368 107.415 89.4979C106.946 87.7982 106.087 85.9812 105.012 84.4963L104.133 83.2459L104.915 81.6048C107.181 76.8376 108.588 72.5199 109.447 67.7136C110.033 64.4118 110.19 57.3978 109.74 53.9397C108.9 47.59 107.298 42.4712 104.426 36.9421C98.8582 26.2551 89.6368 17.9321 78.3445 13.3994C74.5544 11.8755 70.6079 10.8595 66.1144 10.2734C64.0826 9.99989 57.2643 9.9022 55.3106 10.1171ZM65.6651 16.3496C78.0514 17.893 89.7149 25.2391 96.7482 35.9066C101.515 43.155 103.957 51.2435 103.957 59.8791C103.957 64.6072 103.371 68.3584 101.886 72.8325C101.046 75.4309 99.2684 79.5338 98.9949 79.5338C98.8777 79.5338 98.233 79.358 97.5687 79.1431C93.6223 77.9122 89.0311 78.4397 85.4754 80.5302C84.0102 81.3899 81.3922 84.0079 80.5326 85.4732C78.4226 89.0486 77.8951 93.5813 79.165 97.5865C79.3604 98.2312 79.5362 98.8759 79.5362 98.9931C79.5362 99.4621 73.6557 101.767 70.0609 102.686C66.3098 103.643 63.7309 103.975 59.9017 103.975C45.3077 103.975 31.7492 96.6682 23.4265 84.3205C19.6559 78.7328 17.1747 72.1291 16.3346 65.4864C15.8462 61.6375 16.0025 55.7176 16.7058 52.4744C17.5459 48.4887 18.5423 45.519 20.3006 41.592L20.8867 40.3025L22.1761 40.7714C24.0321 41.4357 26.6305 41.7092 28.6428 41.4552C31.378 41.084 33.3316 40.3221 35.5002 38.7786C40.5407 35.2032 42.7484 28.4824 40.8533 22.4257C40.6384 21.7615 40.4626 21.1167 40.4626 20.9995C40.4626 20.5697 46.1478 18.3033 49.4886 17.4241C55.1738 15.9197 59.765 15.6267 65.6651 16.3496Z" fill="url(#paint2_linear_2028_268)"/>
<defs>
<linearGradient id="paint0_linear_2028_268" x1="61.5011" y1="16.0117" x2="61.5013" y2="104.941" gradientUnits="userSpaceOnUse">
<stop stop-color="#0097F3"/>
<stop offset="1" stop-color="#0160EA"/>
</linearGradient>
<linearGradient id="paint1_linear_2028_268" x1="61.5011" y1="16.0117" x2="61.5013" y2="104.941" gradientUnits="userSpaceOnUse">
<stop stop-color="#0097F3"/>
<stop offset="1" stop-color="#0160EA"/>
</linearGradient>
<linearGradient id="paint2_linear_2028_268" x1="61.5011" y1="16.0117" x2="61.5013" y2="104.941" gradientUnits="userSpaceOnUse">
<stop stop-color="#0097F3"/>
<stop offset="1" stop-color="#0160EA"/>
</linearGradient>
</defs>
</svg>
