<svg width="120" height="120" viewBox="0 0 120 120" fill="none" xmlns="http://www.w3.org/2000/svg">
<path d="M48.2812 23.5622V13H58.6328V23.5622H48.2812Z" fill="url(#paint0_linear_2028_826)"/>
<path d="M63.5156 39.601V18.8679H84.2188V31.386H76.0156V39.601H63.5156Z" fill="url(#paint1_linear_2028_826)"/>
<path d="M36.3672 33.7331H42.8125V27.2785H36.3672V33.7331Z" fill="url(#paint2_linear_2028_826)"/>
<path d="M78.5547 55.4442V33.9287H110V65.4196H89.6875V55.4442H78.5547Z" fill="url(#paint3_linear_2028_826)"/>
<path d="M10 76.7641H33.0469V55.4442H48.4766V38.0362H10V76.7641Z" fill="url(#paint4_linear_2028_826)"/>
<path d="M39.1016 106.103V61.5077H83.4375V106.103H39.1016Z" fill="url(#paint5_linear_2028_826)"/>
<defs>
<linearGradient id="paint0_linear_2028_826" x1="61.5011" y1="18.5971" x2="61.5013" y2="101.394" gradientUnits="userSpaceOnUse">
<stop stop-color="#0097F3"/>
<stop offset="1" stop-color="#0160EA"/>
</linearGradient>
<linearGradient id="paint1_linear_2028_826" x1="61.5011" y1="18.5971" x2="61.5013" y2="101.394" gradientUnits="userSpaceOnUse">
<stop stop-color="#0097F3"/>
<stop offset="1" stop-color="#0160EA"/>
</linearGradient>
<linearGradient id="paint2_linear_2028_826" x1="61.5011" y1="18.5971" x2="61.5013" y2="101.394" gradientUnits="userSpaceOnUse">
<stop stop-color="#0097F3"/>
<stop offset="1" stop-color="#0160EA"/>
</linearGradient>
<linearGradient id="paint3_linear_2028_826" x1="61.5011" y1="18.5971" x2="61.5013" y2="101.394" gradientUnits="userSpaceOnUse">
<stop stop-color="#0097F3"/>
<stop offset="1" stop-color="#0160EA"/>
</linearGradient>
<linearGradient id="paint4_linear_2028_826" x1="61.5011" y1="18.5971" x2="61.5013" y2="101.394" gradientUnits="userSpaceOnUse">
<stop stop-color="#0097F3"/>
<stop offset="1" stop-color="#0160EA"/>
</linearGradient>
<linearGradient id="paint5_linear_2028_826" x1="61.5011" y1="18.5971" x2="61.5013" y2="101.394" gradientUnits="userSpaceOnUse">
<stop stop-color="#0097F3"/>
<stop offset="1" stop-color="#0160EA"/>
</linearGradient>
</defs>
</svg>
