<svg width="45" height="45" viewBox="0 0 45 45" fill="none" xmlns="http://www.w3.org/2000/svg">
<path d="M5.625 21.5625V39.375H13.875C21.5625 39.375 22.125 39.3281 21.75 38.5312C21.5625 38.1094 21.3281 36.1875 21.1875 34.3125C21 31.3125 21.1406 30.6094 22.2656 28.3594C22.9688 26.8594 24.375 25.0312 25.5469 24.0469C27.2344 22.6406 27.5156 22.2188 27.0938 21.5625C26.8125 21.0938 26.7188 20.3906 26.8594 19.9688C27.2812 18.8438 29.25 19.1719 29.4375 20.3906C29.5312 21.2344 29.9062 21.3281 33.5156 21.3281H37.5V12.5156V3.75H21.5625H5.625V21.5625ZM20.625 13.125V15H15.9375H11.25V13.125V11.25H15.9375H20.625V13.125ZM29.2969 13.125C29.2969 13.9688 29.0156 14.3438 28.2188 14.4375C27.0938 14.625 26.4375 13.5938 26.9062 12.375C27.0469 11.9531 27.6094 11.7188 28.2188 11.8125C29.0156 11.9062 29.2969 12.2812 29.2969 13.125ZM20.625 20.625V22.5H15.9375H11.25V20.625V18.75H15.9375H20.625V20.625ZM16.875 28.125V30H14.0625H11.25V28.125V26.25H14.0625H16.875V28.125Z" fill="white"/>
<path d="M31.2188 25.4531C30.8906 26.7656 29.2031 27.6562 27.5625 27.3281C26.4844 27.1406 26.2031 27.375 25.2656 29.1094L24.2344 31.125L25.2656 31.7812C25.875 32.2031 26.25 32.9531 26.25 33.75C26.25 34.5469 25.875 35.2969 25.2656 35.7188L24.2344 36.375L25.2656 38.3906C26.2031 40.125 26.4844 40.3594 27.5625 40.1719C29.2031 39.8438 30.8906 40.7344 31.2188 42.0469C31.4531 42.9844 31.7812 43.125 33.7969 43.125C35.8125 43.125 36.0938 42.9844 36.375 41.9531C36.6562 40.7344 37.875 40.125 39.9844 40.0781C41.0156 40.0781 41.5312 39.6562 42.3281 38.2969L43.3594 36.5156L42.375 35.7188C41.1562 34.7344 41.1562 32.625 42.4219 31.6875C43.3594 31.0312 43.3594 31.0312 42.3281 29.2031C41.5312 27.8438 41.0156 27.4219 39.9844 27.4219C37.875 27.375 36.6562 26.7656 36.375 25.5469C36.0938 24.5156 35.8125 24.375 33.7969 24.375C31.7812 24.375 31.4531 24.5156 31.2188 25.4531ZM35.8125 31.6875C36.75 32.625 36.75 34.875 35.8125 35.8125C34.1719 37.5 30.9375 36.1406 30.9375 33.8438C30.9375 31.3594 34.125 29.9531 35.8125 31.6875Z" fill="white"/>
</svg>
