<svg width="45" height="45" viewBox="0 0 45 45" fill="none" xmlns="http://www.w3.org/2000/svg">
<path d="M16.0781 4.64062C11.1562 6.46875 7.64062 9.65625 5.25 14.5312C4.07812 16.875 3.98438 17.5781 3.98438 22.5C3.98438 27.5156 4.07812 28.0781 5.34375 30.7031C7.125 34.3125 10.6875 37.875 14.2969 39.6562C16.9219 40.9219 17.4844 41.0156 22.5 41.0156C27.5156 41.0156 28.0781 40.9219 30.7031 39.6562C34.3125 37.875 37.875 34.3125 39.6562 30.7031C40.9219 28.0781 41.0156 27.5156 41.0156 22.5C41.0156 17.4844 40.9219 16.9219 39.6562 14.2969C37.875 10.6875 34.3125 7.125 30.7031 5.39062C28.2656 4.17188 27.2812 3.98438 23.2031 3.84375C19.5 3.75 18 3.9375 16.0781 4.64062ZM28.9688 9.375C32.0156 10.9219 34.0781 12.9375 35.7188 16.0781C36.6094 17.7188 36.7969 18.7969 36.7969 22.5C36.7969 26.5312 36.6562 27.1875 35.4375 29.4375C33.0938 33.6094 29.2031 36.375 24.7969 36.8906L22.5 37.1719V22.5469V7.96875H24.2812C25.3594 7.96875 27.2812 8.53125 28.9688 9.375Z" fill="white"/>
</svg>
