<svg width="31" height="31" viewBox="0 0 31 31" fill="none" xmlns="http://www.w3.org/2000/svg">
<g clip-path="url(#clip0_974_2920)">
<path d="M6.93262 3.97793C6.2 4.24434 5.68535 4.69844 5.37051 5.37656C5.19492 5.75195 5.18281 5.83067 5.17676 6.44824C5.17676 7.01133 5.20098 7.1627 5.31602 7.41094C5.38867 7.57442 5.44922 7.71367 5.44922 7.72578C5.44922 7.73789 4.42598 7.75 3.17871 7.75C1.20488 7.75 0.87793 7.76211 0.708398 7.84688C0.435937 7.98613 0.248242 8.16777 0.115039 8.42813C0.00605469 8.64609 0 8.88828 0 15.4818V22.3176L0.133203 22.584C0.217969 22.7414 0.381445 22.9291 0.532812 23.0381L0.799219 23.2197L3.12422 23.2379C4.40176 23.2439 5.44922 23.2621 5.44922 23.2742C5.44922 23.2863 5.38867 23.4256 5.31602 23.5891C5.20098 23.8373 5.17676 23.9887 5.17676 24.5578C5.17676 25.2057 5.18281 25.2359 5.40078 25.6779C5.6793 26.241 6.07891 26.6346 6.64805 26.901C7.02949 27.0826 7.09004 27.0947 7.75605 27.0947C8.44023 27.0947 8.4584 27.0887 8.9125 26.8646C9.88125 26.3863 10.408 25.4721 10.3354 24.3701C10.3172 24.0553 10.2627 23.7707 10.1779 23.583C10.1113 23.4256 10.0508 23.2863 10.0508 23.2742C10.0508 23.2621 11.0619 23.25 12.291 23.25C13.5262 23.25 14.5312 23.2318 14.5312 23.2016C14.5312 23.1773 14.4707 23.0078 14.398 22.8262C14.277 22.5234 14.2588 22.36 14.2285 20.9189L14.1982 19.3447L13.7926 19.3023C12.9086 19.2176 12.2184 18.8785 11.5281 18.1943C10.8076 17.4738 10.4564 16.7291 10.3777 15.7482C10.2264 13.7805 11.8066 11.8914 13.7684 11.6977L14.1982 11.6553L14.2285 10.0811C14.2588 8.64004 14.277 8.47656 14.398 8.17383C14.4707 7.99219 14.5312 7.82266 14.5312 7.79238C14.5312 7.76817 13.5262 7.75 12.291 7.75C11.0619 7.75 10.0508 7.73789 10.0508 7.72578C10.0508 7.71367 10.1113 7.57442 10.184 7.41094C10.299 7.1627 10.3232 7.01133 10.3232 6.44824C10.3232 5.82461 10.3111 5.75801 10.1295 5.37656C9.86309 4.80742 9.46953 4.40781 8.9125 4.1293C8.48867 3.92344 8.40996 3.90527 7.84687 3.88711C7.38066 3.875 7.16269 3.89922 6.93262 3.97793Z" fill="url(#paint0_linear_974_2920)"/>
<path d="M16.1996 7.85322C15.9332 7.99248 15.7516 8.17412 15.6184 8.42842C15.5094 8.64033 15.5033 8.80986 15.5033 10.929C15.5033 12.1763 15.4912 13.1995 15.4791 13.1995C15.467 13.1995 15.3277 13.139 15.1643 13.0663C14.916 12.9513 14.7646 12.927 14.2016 12.927C13.5779 12.927 13.5113 12.9392 13.1359 13.1147C12.6576 13.3448 12.2822 13.6657 12.0219 14.0774C11.707 14.5739 11.6162 14.9372 11.6404 15.6093C11.6586 16.1542 11.6768 16.245 11.8887 16.6628C12.367 17.6315 13.2812 18.1583 14.3832 18.0856C14.698 18.0675 14.9826 18.013 15.1703 17.9282C15.3277 17.8616 15.467 17.8011 15.4791 17.8011C15.4912 17.8011 15.5033 18.8183 15.5033 20.0595C15.5033 22.2815 15.5033 22.3179 15.6426 22.5843C15.7213 22.7417 15.8848 22.9294 16.0361 23.0384L16.3025 23.22L18.682 23.2382L21.0676 23.2563L20.9525 23.0202C20.4197 21.9243 20.8012 20.5681 21.8426 19.8536C22.6539 19.2905 23.8527 19.2905 24.6641 19.8536C25.6994 20.5681 26.0869 21.9243 25.5541 23.0202L25.4451 23.2503H27.758C30.0588 23.2503 30.0769 23.2503 30.3434 23.111C30.5068 23.0263 30.6885 22.8567 30.8096 22.6812L31.0033 22.3905V15.5003V8.61006L30.8096 8.31943C30.7006 8.15596 30.5008 7.9622 30.3676 7.88955C30.1254 7.75635 30.1012 7.75029 27.7822 7.75029H25.4451L25.5541 7.98037C26.0869 9.07627 25.6994 10.4325 24.6641 11.147C23.8527 11.7101 22.6539 11.7101 21.8426 11.147C20.8072 10.4325 20.4197 9.07627 20.9525 7.98037L21.0615 7.75029H18.7244C16.7082 7.75635 16.357 7.76846 16.1996 7.85322Z" fill="url(#paint1_linear_974_2920)"/>
</g>
<defs>
<linearGradient id="paint0_linear_974_2920" x1="7.48375" y1="25.6994" x2="7.48385" y2="5.05831" gradientUnits="userSpaceOnUse">
<stop stop-color="#0097F3"/>
<stop offset="1" stop-color="#0160EA"/>
</linearGradient>
<linearGradient id="paint1_linear_974_2920" x1="21.6107" y1="22.3242" x2="21.6108" y2="8.53469" gradientUnits="userSpaceOnUse">
<stop stop-color="#0097F3"/>
<stop offset="1" stop-color="#0160EA"/>
</linearGradient>
<clipPath id="clip0_974_2920">
<rect width="31" height="31" fill="white"/>
</clipPath>
</defs>
</svg>
