<svg width="28" height="28" viewBox="0 0 28 28" fill="none" xmlns="http://www.w3.org/2000/svg">
<g clip-path="url(#clip0_974_2929)">
<path d="M3.79578 0.0546875C3.73563 0.0765629 3.60984 0.185938 3.51141 0.295313L3.33641 0.497657V1.88672V3.28125H1.91453H0.487188L0.268438 3.48906C0.0989072 3.64219 0.038751 3.74609 0.016876 3.92109C-0.0542178 4.46797 -0.152655 4.34766 2.55984 7.07656C3.93797 8.45469 5.1575 9.65234 5.27234 9.73984L5.48563 9.89844H7.07703H8.66844L10.9106 12.1461C12.1466 13.382 13.2731 14.4922 13.4153 14.607C13.6614 14.8039 13.7106 14.8203 14.0114 14.8203C14.3286 14.8203 14.3505 14.8094 14.5802 14.5797C14.8098 14.35 14.8208 14.3281 14.8208 14.0109C14.8208 13.7102 14.8044 13.6609 14.6075 13.4148C14.4927 13.2727 13.3825 12.1461 12.1466 10.9102L9.89891 8.66797V7.08203C9.89891 5.64922 9.88797 5.47969 9.80047 5.34844C9.63094 5.09141 4.63797 0.103907 4.50125 0.0492191C4.33719 -0.0109377 3.94891 -0.0109377 3.79578 0.0546875Z" fill="url(#paint0_linear_974_2929)"/>
<path d="M12.4973 0.0656223C11.3927 0.185936 9.78484 0.623436 8.64187 1.11016C8.3575 1.23047 8.1114 1.33984 8.095 1.35078C8.08406 1.36172 8.6364 1.93594 9.32546 2.63047C10.7528 4.06328 10.5231 3.94297 11.4419 3.70234C13.0278 3.28125 14.9911 3.28125 16.6536 3.71328C20.3286 4.65937 23.3419 7.67266 24.288 11.3477C24.7255 13.032 24.7255 14.968 24.288 16.6523C23.3419 20.3273 20.3286 23.3406 16.6536 24.2867C14.9692 24.7242 13.0333 24.7242 11.3489 24.2867C7.6739 23.3406 4.66062 20.3273 3.71453 16.6523C3.2825 14.9898 3.2825 13.0266 3.70359 11.4406C3.94421 10.5219 4.06453 10.7516 2.63171 9.32422C1.93718 8.63515 1.36296 8.08281 1.35203 8.09375C1.34109 8.11016 1.23171 8.35625 1.1114 8.64062C0.602808 9.82734 0.187183 11.3969 0.0614018 12.5891C-0.0260982 13.3602 -0.00969197 14.9078 0.0832768 15.6953C0.870777 22.0609 5.93484 27.125 12.3059 27.918C13.1864 28.0273 14.8161 28.0273 15.6966 27.918C20.3942 27.3328 24.4739 24.4289 26.5794 20.1523C27.5473 18.1945 28.0012 16.2367 28.0012 14C28.0012 11.7633 27.5473 9.80547 26.5794 7.84765C24.4739 3.57656 20.3833 0.661716 15.6966 0.0820293C14.9528 -0.00547028 13.2302 -0.0164089 12.4973 0.0656223Z" fill="url(#paint1_linear_974_2929)"/>
<path d="M12.7962 6.69922C12.5665 6.74297 12.2001 6.83594 11.9758 6.90156L11.5657 7.03281L11.5493 7.57422L11.5329 8.12109L12.4516 9.03984L13.3704 9.95312L14.0813 9.96953C14.6446 9.98047 14.8743 10.0078 15.1805 10.1117C16.4712 10.5273 17.461 11.5227 17.893 12.8187C18.0024 13.1523 18.0188 13.3164 18.0188 14C18.0188 14.6836 18.0024 14.8477 17.893 15.1812C17.461 16.4773 16.4766 17.4617 15.1805 17.8937C14.8469 18.0031 14.6829 18.0195 13.9993 18.0195C13.3157 18.0195 13.1516 18.0031 12.818 17.8937C11.5219 17.4617 10.5266 16.4719 10.111 15.1812C10.0071 14.875 9.97975 14.6453 9.96882 14.082L9.95241 13.3711L9.03913 12.4523L8.12038 11.5336L7.5735 11.55L7.0321 11.5664L6.90632 11.9711C6.66569 12.7258 6.60007 13.2891 6.63288 14.2734C6.65475 14.9898 6.68757 15.2852 6.79694 15.7227C7.07585 16.8164 7.50788 17.7133 8.17507 18.5664C9.21413 19.8953 10.5813 20.7703 12.304 21.2078C12.8344 21.3445 12.9657 21.3555 13.9993 21.3555C15.0329 21.3555 15.1641 21.3445 15.6946 21.2078C17.4173 20.7703 18.7844 19.8953 19.8235 18.5664C20.4907 17.7078 20.9227 16.8219 21.2071 15.6953C21.3438 15.1648 21.3548 15.0336 21.3548 14C21.3548 12.9664 21.3438 12.8352 21.2071 12.3047C21.0102 11.5391 20.7805 10.9484 20.4469 10.3578C19.4079 8.54766 17.7837 7.32266 15.7219 6.79766C15.2626 6.68281 15.0219 6.65547 14.1907 6.63906C13.4962 6.62812 13.086 6.64453 12.7962 6.69922Z" fill="url(#paint2_linear_974_2929)"/>
</g>
<defs>
<linearGradient id="paint0_linear_974_2929" x1="7.62907" y1="13.9296" x2="7.62911" y2="0.75423" gradientUnits="userSpaceOnUse">
<stop stop-color="#0097F3"/>
<stop offset="1" stop-color="#0160EA"/>
</linearGradient>
<linearGradient id="paint1_linear_974_2929" x1="14.4228" y1="26.3173" x2="14.4229" y2="1.42577" gradientUnits="userSpaceOnUse">
<stop stop-color="#0097F3"/>
<stop offset="1" stop-color="#0160EA"/>
</linearGradient>
<linearGradient id="paint2_linear_974_2929" x1="14.211" y1="20.4706" x2="14.211" y2="7.38048" gradientUnits="userSpaceOnUse">
<stop stop-color="#0097F3"/>
<stop offset="1" stop-color="#0160EA"/>
</linearGradient>
<clipPath id="clip0_974_2929">
<rect width="28" height="28" fill="white"/>
</clipPath>
</defs>
</svg>
