<svg width="30" height="30" viewBox="0 0 30 30" fill="none" xmlns="http://www.w3.org/2000/svg">
<path d="M13.2695 0.0878897C12.3965 0.205077 11.4883 0.421874 11.2891 0.55078C11.0547 0.703124 10.8965 1.01367 10.8965 1.30664C10.8965 1.46484 11.3125 2.45508 12.4785 5.0625C14.1543 8.80664 14.1836 8.88867 13.9668 9.24609C13.7969 9.5332 13.5918 9.63867 13.2285 9.63867C12.666 9.63867 12.6836 9.66211 11.1191 6.1582C10.3691 4.4707 9.72461 3.07617 9.68359 3.06445C9.5957 3.0293 8.79297 3.50977 8.14258 3.99023C7.52148 4.45312 6.4668 5.50195 5.98047 6.14062C5.27148 7.07812 4.70312 8.10352 4.31055 9.1582C4.09961 9.71484 3.79492 10.8281 3.73047 11.2617L3.69531 11.4844H14.998H26.3008L26.2656 11.2617C26.2012 10.8281 25.8965 9.71484 25.6855 9.1582C24.9648 7.22461 23.6934 5.46094 22.1113 4.19531C21.4434 3.66211 20.4238 3.02344 20.3125 3.06445C20.2773 3.07617 19.6211 4.47656 18.8652 6.17578C17.3066 9.67969 17.3301 9.63867 16.7676 9.63867C16.4043 9.63867 16.1934 9.52734 16.0293 9.24609C15.8184 8.89453 15.8477 8.80664 17.5176 5.06836C18.6836 2.45508 19.0996 1.4707 19.0996 1.30664C19.0996 1.01367 18.9414 0.708983 18.707 0.55078C18.502 0.416015 17.6289 0.210937 16.6973 0.0878897C15.9414 -0.0175791 14.0078 -0.0175791 13.2695 0.0878897Z" fill="url(#paint0_linear_974_2924)"/>
<path d="M2.28383 13.3125C2.09047 13.4122 1.985 13.5176 1.88539 13.711C1.76234 13.9454 1.75062 14.0391 1.7682 14.6192C1.79164 15.3575 1.89711 15.6153 2.24867 15.7852C2.50062 15.9024 4.50453 16.3946 5.85804 16.6641C11.8991 17.877 16.8034 17.9532 22.733 16.9278C24.5729 16.6114 27.3385 15.9786 27.7545 15.7793C28.1002 15.6153 28.2057 15.3516 28.2291 14.6192C28.2467 14.0391 28.235 13.9454 28.112 13.711C28.0123 13.5176 27.9069 13.4122 27.7135 13.3125L27.4557 13.1836H14.9987H2.54164L2.28383 13.3125Z" fill="url(#paint1_linear_974_2924)"/>
<path d="M3.52763 19.2305C3.54521 20.4668 3.55107 20.5488 3.67997 20.748C3.88505 21.0879 4.09599 21.1523 4.93388 21.1523H5.65458L5.81864 21.6387C5.91239 21.9023 6.09989 22.3652 6.24638 22.6699L6.50419 23.2207L5.98271 23.7539C5.42021 24.3281 5.33818 24.5039 5.42021 24.9434C5.4495 25.1367 5.66044 25.3711 6.90263 26.6133C8.14482 27.8555 8.37919 28.0664 8.56669 28.0957C9.012 28.1777 9.18778 28.0957 9.762 27.5332L10.2952 27.0059L10.7815 27.2402C11.0452 27.3691 11.4964 27.5566 11.7776 27.6621L12.2933 27.8437L12.3167 28.6172C12.3343 29.2793 12.3518 29.4141 12.4632 29.5898C12.721 30.0059 12.6975 30 15.0003 30C16.9397 30 17.0804 29.9941 17.2503 29.8887C17.5901 29.6777 17.6604 29.4727 17.6839 28.6113L17.7073 27.8437L18.2229 27.6621C18.5042 27.5566 18.9554 27.3691 19.219 27.2402L19.7054 27.0117L20.2444 27.5332C20.8245 28.0957 20.9944 28.1777 21.4339 28.0957C21.6214 28.0664 21.8558 27.8555 23.0979 26.6133C24.3401 25.3711 24.5511 25.1367 24.5804 24.9434C24.6624 24.5039 24.5804 24.3281 24.0179 23.7539L23.4905 23.2207L23.7542 22.6758C23.9007 22.3769 24.094 21.9082 24.1819 21.6387L24.3401 21.1523H25.0667C25.9046 21.1523 26.1155 21.0879 26.3206 20.748C26.4495 20.5488 26.4554 20.4668 26.4729 19.2305C26.4964 17.7305 26.5667 17.8594 25.8108 18.041C24.7854 18.2871 22.3362 18.7383 21.4866 18.8379C21.0999 18.8848 21.0765 18.9141 21.012 19.4648C20.9593 19.9336 20.7132 20.6836 20.4202 21.2695C19.6526 22.7988 18.346 23.8769 16.6058 24.416C16.1194 24.5625 16.014 24.5742 15.0003 24.5742C13.9866 24.5742 13.8811 24.5625 13.3948 24.416C11.6546 23.8769 10.3479 22.7988 9.58036 21.2695C9.26982 20.6543 9.05302 19.9746 8.97099 19.3652C8.93583 19.1133 8.90068 18.9023 8.88896 18.8965C8.8831 18.8906 8.56083 18.8437 8.17411 18.7852C7.27763 18.6562 5.46708 18.3223 4.47099 18.0996C4.04325 18.0059 3.65068 17.9297 3.59794 17.9297C3.51591 17.9297 3.51005 18.0762 3.52763 19.2305Z" fill="url(#paint2_linear_974_2924)"/>
<defs>
<linearGradient id="paint0_linear_974_2924" x1="15.3374" y1="10.7945" x2="15.3374" y2="0.589298" gradientUnits="userSpaceOnUse">
<stop stop-color="#0097F3"/>
<stop offset="1" stop-color="#0160EA"/>
</linearGradient>
<linearGradient id="paint1_linear_974_2924" x1="15.3961" y1="17.3722" x2="15.3961" y2="13.4091" gradientUnits="userSpaceOnUse">
<stop stop-color="#0097F3"/>
<stop offset="1" stop-color="#0160EA"/>
</linearGradient>
<linearGradient id="paint2_linear_974_2924" x1="15.3475" y1="29.2744" x2="15.3475" y2="18.5403" gradientUnits="userSpaceOnUse">
<stop stop-color="#0097F3"/>
<stop offset="1" stop-color="#0160EA"/>
</linearGradient>
</defs>
</svg>
