<svg width="29" height="31" viewBox="0 0 29 31" fill="none" xmlns="http://www.w3.org/2000/svg">
<path d="M13.7229 0.0948246C13.6069 0.152832 13.4458 0.294629 13.3684 0.4042C13.2331 0.591114 13.2266 0.681348 13.2073 1.79639C13.1944 2.83408 13.2073 3.01455 13.304 3.20791C13.4909 3.5624 13.7229 3.69775 14.1612 3.69775C14.5995 3.69775 14.838 3.5624 15.012 3.20791C15.1731 2.89209 15.1796 0.868262 15.0249 0.533106C14.8057 0.0754886 14.1741 -0.137207 13.7229 0.0948246Z" fill="url(#paint0_linear_974_2912)"/>
<path d="M5.24908 3.63329C5.12017 3.6784 4.96548 3.75575 4.90748 3.80087C4.62388 4.0329 4.52076 4.63876 4.70767 4.99325C4.84302 5.25751 6.23521 6.61102 6.45435 6.68837C7.09888 6.93973 7.78209 6.48856 7.78209 5.80536C7.78209 5.65067 7.74341 5.45087 7.69185 5.35419C7.56939 5.11571 6.1063 3.69129 5.94517 3.64618C5.59712 3.55594 5.47466 3.5495 5.24908 3.63329Z" fill="url(#paint1_linear_974_2912)"/>
<path d="M22.7046 3.57512C22.6724 3.58157 22.5564 3.60735 22.4468 3.63313C22.2083 3.68469 20.7646 5.08333 20.6357 5.38626C20.2812 6.20481 21.0482 7.00403 21.8732 6.68821C22.0923 6.61087 23.4845 5.25735 23.6199 4.99309C23.8261 4.59993 23.6907 3.98118 23.3491 3.75559C23.188 3.65247 22.8206 3.5429 22.7046 3.57512Z" fill="url(#paint2_linear_974_2912)"/>
<path d="M13.0046 6.61104C10.8518 6.93975 8.9827 7.971 7.66141 9.56943C6.81063 10.5942 6.26278 11.6642 5.94696 12.9146C5.23153 15.7312 5.94696 18.5864 7.91278 20.7778C8.67332 21.6222 9.00203 22.1571 9.30496 23.0466C9.45321 23.4784 9.48543 23.6976 9.51766 24.5806C9.56278 25.7343 9.62723 25.9341 10.0397 26.2048L10.2524 26.353H14.1647H18.077L18.2897 26.2048C18.7022 25.9341 18.7667 25.7343 18.8118 24.5806C18.844 23.6976 18.8763 23.4784 19.0245 23.0466C19.3274 22.1571 19.6561 21.6222 20.4167 20.7778C21.493 19.579 22.1634 18.2706 22.4856 16.7302C22.6725 15.8665 22.6854 14.3454 22.5179 13.5011C21.9829 10.7747 20.3845 8.6542 17.9546 7.43604C16.6848 6.79795 15.6149 6.55947 14.1067 6.57236C13.5911 6.57881 13.0948 6.5917 13.0046 6.61104ZM13.5782 10.0979C13.8618 10.3106 13.9843 10.5298 13.9843 10.8198C13.9778 11.2323 13.6813 11.6126 13.2946 11.6899C13.1915 11.7157 12.8886 11.8382 12.6243 11.9606C11.7735 12.3667 11.2514 13.0112 10.7745 14.2681C10.6069 14.6999 10.3104 14.8997 9.90438 14.8675C9.55633 14.8288 9.31141 14.6677 9.16961 14.3841C9.03426 14.1005 9.04715 13.8556 9.23407 13.3206C9.76258 11.806 10.9292 10.6329 12.4374 10.1044C13.0239 9.89815 13.3075 9.8917 13.5782 10.0979Z" fill="url(#paint3_linear_974_2912)"/>
<path d="M0.501733 12.2958C0.192358 12.4634 0.0376701 12.6954 0.00544356 13.0563C-0.0332283 13.4753 0.13435 13.7718 0.501733 13.9587C0.76599 14.094 0.875561 14.1069 1.88748 14.1069C3.09275 14.1069 3.28611 14.0554 3.56326 13.6944C3.74373 13.4431 3.74373 12.8372 3.55681 12.5794C3.29255 12.2185 3.09919 12.1733 1.85525 12.1733C0.875561 12.1733 0.695092 12.1927 0.501733 12.2958Z" fill="url(#paint4_linear_974_2912)"/>
<path d="M25.1266 12.2894C24.7721 12.4634 24.6367 12.7019 24.6367 13.1401C24.6367 13.572 24.7656 13.7976 25.1201 13.9845C25.3135 14.0876 25.4939 14.1069 26.4414 14.1069C27.4533 14.1069 27.5629 14.094 27.8271 13.9587C28.3428 13.6944 28.4975 13.0435 28.1494 12.5601C27.9045 12.2185 27.7047 12.1733 26.4607 12.1733C25.5262 12.1733 25.307 12.1927 25.1266 12.2894Z" fill="url(#paint5_linear_974_2912)"/>
<path d="M11.1992 28.9827C10.877 29.1438 10.6836 29.4661 10.6836 29.8335C10.6836 30.2009 10.877 30.5231 11.1992 30.6843C11.4055 30.7874 11.6826 30.8003 14.1641 30.8003C16.6455 30.8003 16.9227 30.7874 17.1289 30.6843C17.8186 30.3427 17.8186 29.3243 17.1289 28.9827C16.9227 28.8796 16.6455 28.8667 14.1641 28.8667C11.6826 28.8667 11.4055 28.8796 11.1992 28.9827Z" fill="url(#paint6_linear_974_2912)"/>
<defs>
<linearGradient id="paint0_linear_974_2912" x1="14.1991" y1="3.47546" x2="14.1991" y2="0.187178" gradientUnits="userSpaceOnUse">
<stop stop-color="#0097F3"/>
<stop offset="1" stop-color="#0160EA"/>
</linearGradient>
<linearGradient id="paint1_linear_974_2912" x1="6.24525" y1="6.56734" x2="6.24526" y2="3.73537" gradientUnits="userSpaceOnUse">
<stop stop-color="#0097F3"/>
<stop offset="1" stop-color="#0160EA"/>
</linearGradient>
<linearGradient id="paint2_linear_974_2912" x1="22.1797" y1="6.56705" x2="22.1797" y2="3.73073" gradientUnits="userSpaceOnUse">
<stop stop-color="#0097F3"/>
<stop offset="1" stop-color="#0160EA"/>
</linearGradient>
<linearGradient id="paint3_linear_974_2912" x1="14.4101" y1="25.1638" x2="14.4101" y2="7.57253" gradientUnits="userSpaceOnUse">
<stop stop-color="#0097F3"/>
<stop offset="1" stop-color="#0160EA"/>
</linearGradient>
<linearGradient id="paint4_linear_974_2912" x1="1.90441" y1="13.9907" x2="1.90442" y2="12.2712" gradientUnits="userSpaceOnUse">
<stop stop-color="#0097F3"/>
<stop offset="1" stop-color="#0160EA"/>
</linearGradient>
<linearGradient id="paint5_linear_974_2912" x1="26.5421" y1="13.9907" x2="26.5421" y2="12.2712" gradientUnits="userSpaceOnUse">
<stop stop-color="#0097F3"/>
<stop offset="1" stop-color="#0160EA"/>
</linearGradient>
<linearGradient id="paint6_linear_974_2912" x1="14.2694" y1="30.6841" x2="14.2694" y2="28.9645" gradientUnits="userSpaceOnUse">
<stop stop-color="#0097F3"/>
<stop offset="1" stop-color="#0160EA"/>
</linearGradient>
</defs>
</svg>
